<svg width="100" height="100" viewBox="0 0 100 100" xmlns="http://www.w3.org/2000/svg"><rect x="2" y="2" width="96" height="96" rx="8" fill="white" stroke="#4A90E2" stroke-width="2"/><polygon points="25,35 75,35 70,55 30,55" fill="#1E3A8A"/><rect x="32" y="38" width="6" height="6" rx="1" fill="#1E3A8A"/><rect x="40" y="38" width="6" height="6" rx="1" fill="#1E3A8A"/><rect x="48" y="38" width="6" height="6" rx="1" fill="#1E3A8A"/><rect x="32" y="46" width="6" height="6" rx="1" fill="#1E3A8A"/><rect x="40" y="46" width="6" height="6" rx="1" fill="#1E3A8A"/><rect x="48" y="46" width="6" height="6" rx="1" fill="#1E3A8A"/><rect x="32" y="54" width="6" height="6" rx="1" fill="#1E3A8A"/><rect x="40" y="54" width="6" height="6" rx="1" fill="#1E3A8A"/><rect x="48" y="54" width="6" height="6" rx="1" fill="#1E3A8A"/><rect x="35" y="25" width="30" height="8" rx="2" fill="#4A90E2"/><polygon points="48,33 50,33 49,37" fill="#4A90E2"/><text x="50" y="75" text-anchor="middle" font-family="Arial, sans-serif" font-size="12" font-weight="normal" fill="#1E3A8A">girocard</text></svg>
