<svg width="32" height="32" viewBox="0 0 32 32" fill="none" xmlns="http://www.w3.org/2000/svg">
  <!-- Vending Machine Body -->
  <rect x="2" y="2" width="28" height="28" rx="3" fill="#2d2d2d" stroke="#404040" stroke-width="1"/>
  
  <!-- Header -->
  <rect x="2" y="2" width="28" height="6" rx="3" fill="url(#headerGradient)"/>
  <text x="16" y="6" text-anchor="middle" fill="white" font-size="3" font-weight="bold" font-family="Arial, sans-serif">VC</text>
  
  <!-- Glass Panel -->
  <rect x="3" y="9" width="26" height="16" rx="2" fill="url(#glassGradient)" stroke="#00ffff" stroke-width="0.5"/>
  
  <!-- Product Grid - 4x4 -->
  <rect x="5" y="11" width="4" height="3" rx="1" fill="#3a3a3a" stroke="#505050" stroke-width="0.3"/>
  <rect x="10" y="11" width="4" height="3" rx="1" fill="#3a3a3a" stroke="#505050" stroke-width="0.3"/>
  <rect x="15" y="11" width="4" height="3" rx="1" fill="#3a3a3a" stroke="#505050" stroke-width="0.3"/>
  <rect x="20" y="11" width="4" height="3" rx="1" fill="#3a3a3a" stroke="#505050" stroke-width="0.3"/>
  
  <rect x="5" y="15" width="4" height="3" rx="1" fill="#3a3a3a" stroke="#505050" stroke-width="0.3"/>
  <rect x="10" y="15" width="4" height="3" rx="1" fill="#3a3a3a" stroke="#505050" stroke-width="0.3"/>
  <rect x="15" y="15" width="4" height="3" rx="1" fill="#3a3a3a" stroke="#505050" stroke-width="0.3"/>
  <rect x="20" y="15" width="4" height="3" rx="1" fill="#3a3a3a" stroke="#505050" stroke-width="0.3"/>
  
  <rect x="5" y="19" width="4" height="3" rx="1" fill="#3a3a3a" stroke="#505050" stroke-width="0.3"/>
  <rect x="10" y="19" width="4" height="3" rx="1" fill="#3a3a3a" stroke="#505050" stroke-width="0.3"/>
  <rect x="15" y="19" width="4" height="3" rx="1" fill="#3a3a3a" stroke="#505050" stroke-width="0.3"/>
  <rect x="20" y="19" width="4" height="3" rx="1" fill="#3a3a3a" stroke="#505050" stroke-width="0.3"/>
  
  <rect x="5" y="23" width="4" height="3" rx="1" fill="#3a3a3a" stroke="#505050" stroke-width="0.3"/>
  <rect x="10" y="23" width="4" height="3" rx="1" fill="#3a3a3a" stroke="#505050" stroke-width="0.3"/>
  <rect x="15" y="23" width="4" height="3" rx="1" fill="#3a3a3a" stroke="#505050" stroke-width="0.3"/>
  <rect x="20" y="23" width="4" height="3" rx="1" fill="#3a3a3a" stroke="#505050" stroke-width="0.3"/>
  
  <!-- Product Dots -->
  <circle cx="7" cy="12.5" r="0.8" fill="#00ffff"/>
  <circle cx="12" cy="12.5" r="0.8" fill="#ff00ff"/>
  <circle cx="17" cy="12.5" r="0.8" fill="#800080"/>
  <circle cx="22" cy="12.5" r="0.8" fill="#00ffff"/>
  
  <circle cx="7" cy="16.5" r="0.8" fill="#ff00ff"/>
  <circle cx="12" cy="16.5" r="0.8" fill="#800080"/>
  <circle cx="17" cy="16.5" r="0.8" fill="#00ffff"/>
  <circle cx="22" cy="16.5" r="0.8" fill="#ff00ff"/>
  
  <circle cx="7" cy="20.5" r="0.8" fill="#800080"/>
  <circle cx="12" cy="20.5" r="0.8" fill="#00ffff"/>
  <circle cx="17" cy="20.5" r="0.8" fill="#ff00ff"/>
  <circle cx="22" cy="20.5" r="0.8" fill="#800080"/>
  
  <circle cx="7" cy="24.5" r="0.8" fill="#00ffff"/>
  <circle cx="12" cy="24.5" r="0.8" fill="#ff00ff"/>
  <circle cx="17" cy="24.5" r="0.8" fill="#800080"/>
  <circle cx="22" cy="24.5" r="0.8" fill="#00ffff"/>
  
  <!-- Selection Buttons -->
  <rect x="5" y="28" width="8" height="2" rx="1" fill="#00ffff"/>
  <rect x="19" y="28" width="8" height="2" rx="1" fill="#ff00ff"/>
  
  <!-- Coin Slot -->
  <rect x="13" y="30" width="6" height="1" rx="0.5" fill="#666" stroke="#333" stroke-width="0.2"/>
  
  <!-- Gradients -->
  <defs>
    <linearGradient id="headerGradient" x1="0%" y1="0%" x2="100%" y2="0%">
      <stop offset="0%" style="stop-color:#00ffff"/>
      <stop offset="100%" style="stop-color:#ff00ff"/>
    </linearGradient>
    
    <linearGradient id="glassGradient" x1="0%" y1="0%" x2="100%" y2="100%">
      <stop offset="0%" style="stop-color:rgba(0,255,255,0.3)"/>
      <stop offset="100%" style="stop-color:rgba(255,0,255,0.1)"/>
    </linearGradient>
  </defs>
</svg> 